<svg width="29" height="22" viewBox="0 0 29 22" fill="white" xmlns="http://www.w3.org/2000/svg">
<path fill-rule="evenodd" clip-rule="evenodd" d="M1.69878 1.61091C0 3.22183 0 5.81455 0 11C0 16.1854 0 18.7782 1.69878 20.3891C3.39756 22 6.13171 22 11.6 22H17.4C22.8683 22 25.6024 22 27.3012 20.3891C29 18.7782 29 16.1854 29 11C29 5.81455 29 3.22183 27.3012 1.61091C25.6024 0 22.8683 0 17.4 0H11.6C6.13171 0 3.39756 0 1.69878 1.61091ZM24.0354 4.83981C24.4199 5.27735 24.3576 5.92761 23.8962 6.29223L20.7113 8.80903C19.4261 9.82469 18.3844 10.6479 17.465 11.2086C16.5073 11.7927 15.5746 12.1617 14.5 12.1617C13.4254 12.1617 12.4927 11.7927 11.535 11.2086C10.6156 10.6479 9.57393 9.82469 8.28872 8.80904L5.1038 6.29223C4.6424 5.92761 4.58006 5.27735 4.96456 4.83981C5.34906 4.40227 6.0348 4.34316 6.4962 4.70777L9.6266 7.18151C10.9794 8.25052 11.9186 8.99032 12.7115 9.47393C13.4791 9.94206 13.9996 10.0992 14.5 10.0992C15.0004 10.0992 15.5209 9.94206 16.2885 9.47393C17.0814 8.99032 18.0206 8.25052 19.3734 7.1815L22.5038 4.70777C22.9652 4.34316 23.6509 4.40227 24.0354 4.83981Z" fill="#0D0D0D"/>
</svg>
