<svg width="29" height="30" viewBox="0 0 29 30" fill="none" xmlns="http://www.w3.org/2000/svg">
<path d="M24.1217 20.3217L26.6106 12.8552C28.7848 6.3325 29.8719 3.07117 28.1504 1.34963C26.4288 -0.371906 23.1675 0.715202 16.6448 2.88942L9.17831 5.37827C3.91389 7.13307 1.28168 8.01047 0.533685 9.29712C-0.177895 10.5211 -0.177895 12.0329 0.533684 13.2569C1.28168 14.5435 3.91389 15.4209 9.1783 17.1757C9.83073 17.3932 10.5647 17.2379 11.0533 16.7539L19.0364 8.84468C19.4856 8.39972 20.2104 8.4031 20.6553 8.85222C21.1003 9.30134 21.0969 10.0261 20.6478 10.4711L12.7935 18.2526C12.255 18.7861 12.0846 19.6026 12.3243 20.3217C14.0791 25.5861 14.9565 28.2183 16.2431 28.9663C17.4671 29.6779 18.9789 29.6779 20.2029 28.9663C21.4895 28.2183 22.3669 25.5861 24.1217 20.3217Z" fill="white"/>
</svg>
